# xmcd
#
# Track frame offsets: 
#        150
#        12350
#        22967
#        34632
#        45167
#        57620
#        70847
#        81647
#        94197
#        107350
#        120685
#        134035
#        147680
#        159490
#        173147
#        186345
#        199080
#        210925
#        222450
#        235280
#        248020
#        259372
#        272545
#        285217
#
# Disc length: 3961 seconds
#
# Revision: 0
# Processed by: cddbd v1.5.2PL0 Copyright (c) Steve Scherf et al.
# Submitted via: ExactAudioCopy v0.99pb4
#
DISCID=600f7718
DTITLE=Various Artist - Wail Daddy! Nashville Jump Blues
DYEAR=1952
DGENRE=Jump Blues
TTITLE0=Clarence Samuels - Chicken Hearted Woman
TTITLE1=Jack Cooley - Dyna-Flow
TTITLE2=Jack Cooley - Tom Tom Boogie
TTITLE3=The Fat Man With Sunnyland Slim Trio - Glad I Don't Worry No M
TTITLE3=ore
TTITLE4=Sherman Johnson - Back Alley Boogie
TTITLE5=Charlie Dowell Band With Willie Lee Patton - Allotment Blues
TTITLE6=Charlie Dowell Band With Willie Lee Patton - Wail Daddy
TTITLE7=Del Thorne And Her Trio - Down South In Birmingham
TTITLE8=Shy Guy Douglas - New Memphis Blues
TTITLE9=Shy Guy Douglas - Detroit Arrow
TTITLE10=Good Rockin' Sam Beasley - Happy Go Lucky
TTITLE11="Little Maxie" Bailey - Drive Soldiers Drive
TTITLE12="Little Maxie" Bailey - My Baby's Blues
TTITLE13=Del Thorne And Her Trio - Goof Train
TTITLE14=Del Thorne And Her Trio - Fly Chick Blues
TTITLE15=Bernie Hardson - Yeh It's True
TTITLE16=Bernie Hardson - Love Me Baby
TTITLE17=The Blue Flames - Watch On
TTITLE18=Roosevelt Lee - Lazy Pete
TTITLE19=Tommy McGhee - Late Every Evening
TTITLE20=Tommy McGhee - Poppin'
TTITLE21=Beulah Bryant - Prize Fightin' Papa
TTITLE22=Bobby Price - Too Many Keys
TTITLE23=The Blue Flames - Driving Down The Highway
EXTD=
EXTT0=
EXTT1=
EXTT2=
EXTT3=
EXTT4=
EXTT5=
EXTT6=
EXTT7=
EXTT8=
EXTT9=
EXTT10=
EXTT11=
EXTT12=
EXTT13=
EXTT14=
EXTT15=
EXTT16=
EXTT17=
EXTT18=
EXTT19=
EXTT20=
EXTT21=
EXTT22=
EXTT23=
PLAYORDER=
